<svg t="1631425258299" class="icon" viewBox="0 0 1024 1024" version="1.1" xmlns="http://www.w3.org/2000/svg" p-id="2901"
  width="200" height="200">
  <path
    d="M383.32864583 343.25c0 134.6203125 109.125 243.759375 243.7453125 243.759375C761.70833333 587.009375 870.83333333 477.8703125 870.83333333 343.25S761.70833333 99.5046875 627.07395833 99.5046875c-134.60625 0-243.7453125 109.125-243.7453125 243.7453125z"
    fill="#1890ff" p-id="2902"></path>
  <path
    d="M120.83802083 680.75c0 93.1921875 75.5578125 168.75 168.75 168.75s168.75-75.5578125 168.75-168.75-75.5578125-168.75-168.75-168.75-168.75 75.5578125-168.75 168.75z"
    fill="#2fc25b" p-id="2903"></path>
  <path d="M608.34270833 737a112.5 112.5 0 1 0 225 0 112.5 112.5 0 0 0-225 0z" fill="#facc14" p-id="2904"></path>
</svg>
