<svg version="1.1" id="图层_1" xmlns="http://www.w3.org/2000/svg" xmlns:xlink="http://www.w3.org/1999/xlink" x="0px" y="0px"
	 width="200px" height="200px" viewBox="0 0 200 200" enable-background="new 0 0 200 200" xml:space="preserve">
<path fill="#1890FF" d="M26.2,178.301V22.175h-9.646v165.431h173.61v-9.306H26.2z"/>
<polygon fill="#2FC25B" points="50.457,134.932 61.547,134.932 61.547,118.297 72.635,118.297 72.635,73.94 61.547,73.94 
	61.547,62.85 50.457,62.85 50.457,73.94 39.368,73.94 39.368,118.297 50.457,118.297 "/>
<polygon fill="#F04864" points="100.359,168.199 111.449,168.199 111.449,118.297 122.539,118.297 122.539,51.761 111.449,51.761 
	111.449,29.582 100.359,29.582 100.359,51.761 89.27,51.761 89.27,118.297 100.359,118.297 "/>
<polygon fill="#2FC25B" points="150.261,151.566 161.351,151.566 161.351,123.842 172.441,123.842 172.441,85.029 161.351,85.029 
	161.351,57.306 150.261,57.306 150.261,85.029 139.173,85.029 139.173,123.842 150.261,123.842 "/>
</svg>
