<svg version="1.1" id="图层_1" xmlns="http://www.w3.org/2000/svg" xmlns:xlink="http://www.w3.org/1999/xlink" x="0px" y="0px"
	 width="200px" height="200px" viewBox="0 0 200 200" enable-background="new 0 0 200 200" xml:space="preserve">
<path fill="#2FC25B" d="M86.782,135.074l14.516,12.859l11.919-12.859L100.522,51.55h-0.244L86.782,135.074z"/>
<path fill="#1890FF" d="M100,26.758c-48.344,0-87.533,39.19-87.533,87.533c0,22.708,8.647,43.396,22.827,58.95l12.46-7.992
	c-11.965-12.266-19.646-28.729-20.628-46.971h11.222v-7.146H27.086c1.604-37.656,31.739-67.924,69.341-69.736v10.154h7.146V41.396
	c37.602,1.813,67.737,32.081,69.341,69.736H161.62v7.146h11.253c-0.972,18.043-8.496,34.345-20.236,46.566l12.068,8.396
	c14.18-15.555,22.827-36.242,22.827-58.95C187.532,65.948,148.342,26.758,100,26.758z"/>
</svg>
