<svg version="1.1" id="图层_1" xmlns="http://www.w3.org/2000/svg" xmlns:xlink="http://www.w3.org/1999/xlink" x="0px" y="0px"
	 width="278px" height="271.223px" viewBox="0 0 278 271.223" enable-background="new 0 0 278 271.223" xml:space="preserve">
<g>
	<path fill-rule="evenodd" clip-rule="evenodd" d="M212.859,21.445c0.667,0,1.334,0,2,0"/>
	<path fill-rule="evenodd" clip-rule="evenodd" d="M174.859,221.445c-0.333,0-0.666,0-1,0"/>
	<path fill-rule="evenodd" clip-rule="evenodd" fill="#2FC25B" d="M216.635,29.275c1.178,2.47,5.08,0.312,7.443,1.063
		c5.289,1.68,8.118,9.458,12.761,13.823c0.979,0.921,2.861,1.011,4.253,2.127c3.583,2.873,8.324,8.333,11.697,8.507
		c5.191,0.268,6.459-5.475,14.887-5.317c-0.407,5.972-1.638,11.122-1.063,18.077c-1.62,1.925-7.291-0.202-6.38,4.253
		c1.394,15.593-8.18,18.642-15.95,25.521c-5.977,5.291-10.398,11.713-17.014,12.76c-3.021,0.185,1.285-6.957-3.19-5.317
		c-3.857,1.104-6.601,3.324-8.507,6.38c-3.308,0.793-7.778,4.206-5.316,7.444c1.898,6.254,15.391,0.914,19.14,5.316
		c-2.309,6.197-8.543,8.47-10.633,14.887c2.907,2.701,4.834,6.286,7.443,9.57c2.626,3.304,6.431,5.679,7.443,9.57
		c4.882,18.75-8.661,32.915-12.76,45.724c-13.563,5.932-24.717,14.272-38.281,20.204c-2.098,0.738,0.263,5.934-2.127,6.38
		c-9.242-4.581-16.83-10.816-25.521-15.95c-8.7,2.642-16.518,6.166-24.457,9.57c-3.774-2.561-7.135-5.592-10.633-8.507
		c-3.465-2.888-8.084-5.95-9.57-9.57c2.106-5.691,4.39-11.205,5.317-18.077c-4.71-1.266-6.473-4.881-10.634-5.316
		c-2.937-0.308-7.118,1.377-10.633,2.127c-3.839,0.819-7.879,2.492-11.697,2.126c-4.674-0.447-12.127-4.772-18.077-7.443
		c-4.546-2.04-9.106-4.838-12.76-6.38c-1.507-0.636-4.511-0.577-5.317-1.063c-2.007-1.211-4.3-4.661-6.38-6.38
		c-7.313-6.038-16.858-11.858-20.204-19.141c1.795-4.687,4.462-8.283,4.253-12.76c-0.125-2.674-2.83-5.211-4.253-8.507
		c-0.621-1.439-0.498-3.978-1.063-5.317c-0.809-1.916-1.527-2.801-2.127-4.253c-2.795-6.765-6.722-12.867-6.38-20.204
		c9.015-4.455,20.407-6.531,31.9-8.507c1.749-5.34,2.653-11.525,5.317-15.95c3.19,0,6.38,0,9.57,0
		c0.813-3.085,1.682-6.116,4.253-7.443c3.249-0.769,3.875,1.087,6.38,1.063c3.852-5.01,10.392-7.331,15.95-10.634
		c1.619,4.355,6.415,7.52,7.444,12.76c0.661,3.367-0.485,7.16,0,11.697c6.152,2.708,11.331,6.392,18.077,8.507
		c0.645,3.255,2.258,5.54,3.19,8.507c14.14,0.392,26.015,3.051,34.026,9.57c7.285-2.64,13.072-6.777,24.457-5.316
		c6.191-5.059,11.959-10.852,18.077-15.951c3.976-3.312,9.093-6.227,12.761-8.507c2.496-1.551,5.978-3.436,6.38-6.38
		c-0.538-2.357-3.369-2.269-6.38-3.19c-4.102-1.256-6.199,0.313-7.443-3.19c0.068,0.192-1.895-6.135,2.126-6.38
		c0.771-2.42,6.064-0.317,5.317-4.253c2.748-4.695,3.57-11.317,5.316-17.014c2.67-1.584,5.857-2.65,7.443-5.317 M235.775,215.362
		c2.029-5.284,7.242-11.09,4.253-18.077C231.422,197.256,229.057,212.249,235.775,215.362z M174.101,241.946
		c3.533-1.785,7.938-2.697,8.507-7.443c-4.68-2.508-15.61,2.009-9.57,7.443"/>
</g>
</svg>
