<svg version="1.1" id="图层_1" xmlns="http://www.w3.org/2000/svg" xmlns:xlink="http://www.w3.org/1999/xlink" x="0px" y="0px"
	 width="178px" height="134px" viewBox="0 0 178 134" enable-background="new 0 0 178 134" xml:space="preserve">
<path fill-rule="evenodd" clip-rule="evenodd" fill="#244ECF" d="M5,38.052c0,0,8.052-4.645,20.045-12.557
	s18.161-14.449,27.414-17.89c9.251-3.439,20.793-3.548,29.812,1.721c9.107,5.32,19.703,26.145,37.178,50.054
	c15.893,21.741,54.313,10.148,54.313,10.148s-31.526,25.787-56.198,33.024c-16.754,4.915-30.917-3.137-38.379-9.631
	c-6.266-5.455-28.049-37.973-39.406-47.475C28.473,35.988,5,38.052,5,38.052z"/>
<ellipse fill-rule="evenodd" clip-rule="evenodd" fill="#FFFFFF" cx="58.97" cy="30.655" rx="3.77" ry="3.783"/>
<path fill-rule="evenodd" clip-rule="evenodd" fill="#FECE05" d="M10.198,41.549c0,0,10.394,0.515,15.19,1.719
	c4.797,1.205,10.296,3.898,15.878,9.748c7.519,7.88,27.341,36.526,32.458,41.249c5.082,4.687,12.233,11.829,27.532,13.875
	c16.498,2.208,30.396-5.499,38.774-9.777c6.739-3.439,28.25-18.63,28.25-18.63s-15.324,23.151-27.757,32.912
	c-12.173,9.556-27.186,16.202-40.891,16.511c-9.725,0.221-20.864-2.514-28.669-6.649c-10.473-5.552-18.386-14.665-21.932-22.018
	c-4.522-9.378-6.412-13.712-10.28-22.703c-2.227-5.179-8.4-16.661-14.507-23.393C17.278,46.709,10.198,41.549,10.198,41.549z"/>
</svg>
