<svg version="1.1" id="图层_1" xmlns="http://www.w3.org/2000/svg" xmlns:xlink="http://www.w3.org/1999/xlink" x="0px" y="0px"
	 width="200px" height="200px" viewBox="0 0 200 200" enable-background="new 0 0 200 200" xml:space="preserve">
<rect x="162.431" y="23.368" fill="#FACC14" width="26.329" height="153.265"/>
<rect x="115.417" y="92.01" fill="#1890FF" width="26.329" height="84.623"/>
<rect x="68.401" y="70.384" fill="#FACC14" width="26.329" height="106.249"/>
<polygon fill="#1890FF" points="21.385,176.633 47.715,176.633 47.715,121.154 21.385,121.154 21.385,176.633 "/>
<path fill="#2FC25B" d="M187.185,44.89c0.94,0,1.881,0.941,2.821,0.941c2.821,1.88,3.762,5.642,1.88,8.462l-2.82,2.821
	c-12.225,5.642-25.389,9.403-37.612,14.104c-5.642,2.821-9.403,6.583-12.225,11.284c-4.701,9.404-9.402,19.75-14.104,30.094
	c-1.881,3.762-4.702,7.518-7.522,10.338c-8.464,7.521-19.737,11.283-31.021,10.344c-3.761,0-8.463-1.881-12.224-2.822
	c-1.88-0.939-3.762-1.879-6.582-2.82c-12.225-5.641-26.329,0-32.91,12.225c-2.821,4.701-4.703,10.342-6.583,15.045
	c0,0.939-0.94,1.881-1.881,2.82c-1.88,0.941-3.762,1.881-5.642,0.941c-1.881,0-3.761-1.881-4.701-3.762
	c-0.941-1.881-0.941-3.762,0-4.703c1.88-4.701,4.701-10.342,6.581-15.045c1.882-3.76,4.702-7.521,7.522-10.342
	c8.464-8.459,18.807-12.219,31.031-11.278c4.701,0,8.463,1.88,13.164,3.759c1.881,0.939,3.761,1.877,6.582,2.816
	c2.821,0.941,5.642,1.881,8.463,1.881c7.522,0.941,14.099-1.881,19.736-6.576c1.881-1.88,3.762-4.701,5.643-7.521
	c4.701-9.407,9.402-19.75,14.104-30.094c2.82-5.642,7.522-11.284,13.164-15.045c1.881-0.94,4.701-2.821,6.582-3.761l36.673-14.105
	L187.185,44.89"/>
</svg>
