<svg version="1.1" id="图层_1" xmlns="http://www.w3.org/2000/svg" xmlns:xlink="http://www.w3.org/1999/xlink" x="0px" y="0px"
	 width="200px" height="200px" viewBox="0 0 200 200" enable-background="new 0 0 200 200" xml:space="preserve">
<path fill="#1890FF" d="M40.784,137.858c0,4.206,3.33,7.536,7.537,7.536c4.206,0,7.536-3.329,7.536-7.536
	c0-4.206-3.33-7.536-7.536-7.536C44.114,130.322,40.784,133.652,40.784,137.858z"/>
<path fill="#2FC25B" d="M90.221,55.529c0,3.75,2.867,6.616,6.616,6.616c3.529,0,6.617-3.088,6.617-6.616
	c0-3.75-2.867-6.617-6.617-6.617C93.089,48.913,90.221,52,90.221,55.529z"/>
<path fill="#FACC14" d="M116.369,122.395c0,3.826,3.02,6.846,6.846,6.846s6.846-3.02,6.846-6.846s-3.02-6.847-6.846-6.847
	C119.388,115.347,116.369,118.568,116.369,122.395z"/>
<path fill="#EED285" d="M42.038,57.551c0,3.382,2.899,6.282,6.281,6.282c3.383,0,6.282-2.899,6.282-6.282
	c0-3.383-2.899-6.282-6.282-6.282C44.938,50.786,42.038,53.686,42.038,57.551z"/>
<path fill="#F04864" d="M110.57,91.214c0,3.383,2.417,5.799,5.799,5.799c3.383,0,5.798-2.899,5.798-5.799
	c0-3.382-2.415-5.798-5.798-5.798C112.987,85.417,110.57,87.832,110.57,91.214z"/>
<path fill="#1890FF" d="M99.738,156.964c0,4.206,3.33,7.536,7.536,7.536s7.536-3.329,7.536-7.536c0-4.206-3.33-7.536-7.536-7.536
	S99.738,152.758,99.738,156.964z"/>
<path fill="#1890FF" d="M84.666,101.619c0,4.206,3.33,7.536,7.536,7.536s7.536-3.329,7.536-7.536c0-4.206-3.33-7.536-7.536-7.536
	S84.666,97.413,84.666,101.619z"/>
<path fill="#F04864" d="M67.859,141.892c0,4.206,3.33,7.536,7.536,7.536s7.536-3.329,7.536-7.536c0-4.206-3.33-7.536-7.536-7.536
	S67.859,137.686,67.859,141.892z"/>
<path fill="#F04864" d="M139.502,141.892c0,4.206,3.33,7.536,7.536,7.536s7.536-3.329,7.536-7.536c0-4.206-3.33-7.536-7.536-7.536
	S139.502,137.686,139.502,141.892z"/>
<path fill="#1890FF" d="M134.478,65.061c0,4.206,3.33,7.536,7.536,7.536s7.536-3.329,7.536-7.536c0-4.206-3.33-7.536-7.536-7.536
	S134.478,60.855,134.478,65.061z"/>
<path fill="#2FC25B" d="M46.582,108.004c0,4.205,3.33,7.535,7.536,7.535s7.536-3.328,7.536-7.535s-3.33-7.537-7.536-7.537
	S46.582,103.797,46.582,108.004z"/>
<path fill="#FACC14" d="M140.192,103.869c0,3.826,3.02,6.846,6.846,6.846s6.846-3.02,6.846-6.846s-3.02-6.847-6.846-6.847
	C143.212,96.821,140.192,100.043,140.192,103.869z"/>
<path fill="#2FC25B" d="M92.202,130.323c0,3.749,2.867,6.615,6.616,6.615c3.53,0,6.618-3.088,6.618-6.615
	c0-3.75-2.867-6.617-6.618-6.617C95.069,123.706,92.202,126.794,92.202,130.323z"/>
<path fill="#FACC14" d="M61.013,79.453c0,3.826,3.02,6.846,6.846,6.846s6.846-3.02,6.846-6.846s-3.02-6.847-6.846-6.847
	C64.032,72.405,61.013,75.626,61.013,79.453z"/>
</svg>
