<?xml version="1.0" encoding="utf-8"?>
<!-- Generator: Adobe Illustrator 14.0.0, SVG Export Plug-In . SVG Version: 6.00 Build 43363)  -->
<!DOCTYPE svg PUBLIC "-//W3C//DTD SVG 1.1//EN" "http://www.w3.org/Graphics/SVG/1.1/DTD/svg11.dtd">
<svg version="1.1" id="图层_1" xmlns="http://www.w3.org/2000/svg" xmlns:xlink="http://www.w3.org/1999/xlink" x="0px" y="0px"
	 width="433.334px" height="111.444px" viewBox="0 0 433.334 111.444" enable-background="new 0 0 433.334 111.444"
	 xml:space="preserve">
<g>
	<path d="M63.765,80.838V42.582h13.384v48.645H50.78c-3.796,0-6.728-0.283-8.791-0.85c-2.065-0.564-3.896-1.581-5.493-3.045
		c-3.396-3.062-5.095-8.023-5.095-14.884V42.582h13.285v31.265c0,2.197,0.582,3.912,1.749,5.144
		c1.164,1.233,2.747,1.847,4.745,1.847H63.765z"/>
	<path d="M141.176,79.34v11.887h-23.273c-4.395,0-7.759-0.233-10.088-0.699c-8.191-1.599-14.019-6.159-17.48-13.685
		c-2.264-5.06-3.396-11.32-3.396-18.778c0-8.923,1.731-16.181,5.194-21.776c2.53-4.061,5.909-7.025,10.139-8.89
		c4.228-1.863,9.671-2.796,16.331-2.796h22.574v11.885H120.2c-6.327,0-10.955,1.698-13.885,5.096
		c-2.464,2.796-3.696,7.858-3.696,15.183c0,9.856,1.898,16.316,5.694,19.378c2.662,2.132,6.825,3.196,12.485,3.196H141.176z"/>
	<path d="M164.148,24.603v17.979h13.686c4.062,0,7.241,0.316,9.539,0.948c2.298,0.634,4.245,1.748,5.843,3.347
		c3.063,2.796,4.597,7.492,4.597,14.084v30.266h-13.386V63.558c0-2.597-0.117-4.446-0.351-5.544
		c-0.233-1.099-0.716-2.047-1.448-2.846c-1.333-1.398-3.861-2.131-7.592-2.199h-10.888v38.258h-13.385V24.603H164.148z"/>
	<path d="M243.858,61.66c0-3.396-0.685-5.693-2.047-6.892c-1.366-1.198-4.081-1.799-8.142-1.799h-22.575V42.582h22.575
		c4.061,0,6.856,0.083,8.391,0.25c1.529,0.167,3.097,0.484,4.695,0.949c7.39,2.796,10.886,9.488,10.486,20.076v27.37h-28.168
		c-5.061,0-8.558-0.151-10.486-0.45c-1.934-0.3-3.631-0.914-5.095-1.848c-3.932-2.662-5.895-6.692-5.895-12.086
		c0-3.261,0.782-6.175,2.348-8.74c1.563-2.563,3.646-4.311,6.243-5.244c2.263-0.799,6.025-1.199,11.287-1.199H243.858z
		 M243.858,72.049h-15.382h-2.298c-1.533,0-2.747,0.399-3.647,1.198c-0.897,0.799-1.349,1.898-1.349,3.296
		c0,1.533,0.55,2.631,1.649,3.297c1.1,0.667,2.979,0.998,5.645,0.998h15.382V72.049z"/>
	<path d="M269.727,42.582h19.727c4.051,0,7.189,0.283,9.416,0.848c2.226,0.567,4.068,1.516,5.53,2.847
		c1.46,1.333,2.491,2.997,3.089,4.994c0.596,1.998,0.897,4.862,0.897,8.591v4.695h-12.787v-2.598c0-3.461-0.6-5.826-1.799-7.091
		c-1.197-1.265-3.496-1.899-6.89-1.899h-3.798v38.258h-13.386V42.582z"/>
	<path d="M320.069,42.582V24.603h13.384v17.979h12.388v10.387h-12.388V70.65c0,4.129,0.366,6.727,1.101,7.791
		c1.133,1.599,3.129,2.397,5.992,2.397h5.295v10.389h-9.688c-5.793,0-9.924-1.398-12.388-4.195
		c-2.464-2.796-3.695-7.492-3.695-14.084V52.969h-8.49V42.582H320.069z"/>
	<path d="M397.281,42.582v10.387h-23.674c-2.731,0-4.463,0.135-5.193,0.399c-1.534,0.534-2.298,1.834-2.298,3.896
		c0,1.733,0.73,3.063,2.19,3.995c0.797,0.534,2.956,0.799,6.474,0.799h7.866c5.048,0,9.03,1.067,11.951,3.196
		c3.252,2.397,4.88,5.929,4.88,10.588c0,3.53-0.999,6.76-2.996,9.689c-1.465,2.332-3.245,3.862-5.344,4.594
		c-2.097,0.734-5.611,1.099-10.538,1.099h-27.667V80.838h23.872c2.929,0,4.927-0.032,5.992-0.1c2.397-0.265,3.595-1.63,3.595-4.095
		c0-1.998-0.798-3.361-2.396-4.095c-0.8-0.399-2.73-0.6-5.793-0.6h-8.092c-3.197,0-5.644-0.2-7.342-0.599
		c-1.697-0.399-3.28-1.132-4.745-2.198c-1.798-1.265-3.213-3.012-4.244-5.244c-1.033-2.23-1.549-4.61-1.549-7.142
		c0-4.861,1.779-8.723,5.334-11.587c2.143-1.731,5.858-2.597,11.147-2.597H397.281z"/>
</g>
<g>
	<path d="M416.627,6.85c1.49,0,2.945,0.382,4.365,1.147c1.419,0.765,2.524,1.859,3.317,3.283c0.792,1.423,1.188,2.907,1.188,4.452
		c0,1.53-0.391,3-1.171,4.412c-0.78,1.412-1.874,2.508-3.282,3.288s-2.88,1.17-4.418,1.17c-1.537,0-3.01-0.39-4.417-1.17
		s-2.504-1.876-3.288-3.288c-0.784-1.412-1.177-2.882-1.177-4.412c0-1.545,0.398-3.029,1.194-4.452
		c0.796-1.424,1.904-2.518,3.323-3.283C413.683,7.232,415.137,6.85,416.627,6.85z M416.627,8.321c-1.246,0-2.461,0.32-3.641,0.959
		c-1.181,0.639-2.104,1.553-2.771,2.741c-0.667,1.188-1,2.425-1,3.711c0,1.279,0.328,2.504,0.982,3.677
		c0.655,1.172,1.57,2.086,2.747,2.741c1.177,0.655,2.403,0.982,3.682,0.982s2.506-0.328,3.683-0.982
		c1.177-0.655,2.09-1.569,2.741-2.741c0.65-1.172,0.977-2.398,0.977-3.677c0-1.286-0.331-2.523-0.994-3.711
		c-0.663-1.188-1.587-2.102-2.771-2.741C419.078,8.641,417.866,8.321,416.627,8.321z M412.733,20.638v-9.552h3.282
		c1.121,0,1.934,0.088,2.436,0.265s0.901,0.484,1.199,0.923c0.298,0.439,0.447,0.906,0.447,1.4c0,0.698-0.249,1.306-0.747,1.824
		s-1.158,0.808-1.982,0.871c0.337,0.141,0.608,0.31,0.813,0.506c0.384,0.376,0.854,1.008,1.411,1.894l1.165,1.871h-1.882
		l-0.848-1.505c-0.667-1.184-1.204-1.925-1.611-2.224c-0.282-0.22-0.694-0.329-1.235-0.329h-0.906v4.058H412.733z M414.274,15.262
		h1.871c0.894,0,1.503-0.133,1.829-0.4c0.325-0.267,0.488-0.62,0.488-1.059c0-0.282-0.078-0.535-0.235-0.758
		c-0.157-0.224-0.375-0.391-0.653-0.5c-0.277-0.11-0.794-0.165-1.547-0.165h-1.753V15.262z"/>
</g>
</svg>
